<?xml version="1.0" encoding="us-ascii" standalone="no"?><svg xmlns="http://www.w3.org/2000/svg" xmlns:xlink="http://www.w3.org/1999/xlink" contentStyleType="text/css" height="508px" preserveAspectRatio="none" style="width:531px;height:508px;background:#FFFFFF;" version="1.1" viewBox="0 0 531 508" width="531px" zoomAndPan="magnify"><defs/><g><text fill="#000000" font-family="sans-serif" font-size="14" font-weight="bold" lengthAdjust="spacing" textLength="455" x="31" y="24.5332">Research Lab Website - Enhanced News &amp; Publications Database</text><!--class Person--><g id="elem_Person"><rect codeLine="7" fill="#F1F1F1" height="171.2656" id="Person" rx="2.5" ry="2.5" style="stroke:#181818;stroke-width:0.5;" width="125" x="200.5" y="89.6094"/><ellipse cx="237.1" cy="105.6094" fill="#ADD1B2" rx="11" ry="11" style="stroke:#181818;stroke-width:1.0;"/><path d="M235.9594,106.4063 L235.9594,108.9063 L240.2875,108.9063 L240.2875,107.9844 Q240.2875,107.375 240.5219,107.1094 Q240.7719,106.8438 241.1469,106.8438 Q241.5219,106.8438 241.7563,107.1094 Q241.9906,107.375 241.9906,107.9844 L241.9906,110.6094 L233.9906,110.6094 Q233.3656,110.6094 233.1,110.375 Q232.85,110.1406 232.85,109.75 Q232.85,109.375 233.1156,109.1406 Q233.3813,108.9063 233.9906,108.9063 L234.2563,108.9063 L234.2563,102.25 L233.9906,102.25 Q233.3656,102.25 233.1,102.0156 Q232.85,101.7813 232.85,101.3906 Q232.85,101.0156 233.1,100.7813 Q233.3656,100.5469 233.9906,100.5469 L241.6156,100.5469 L241.6156,103.1406 Q241.6156,103.75 241.3813,104.0156 Q241.1625,104.2656 240.7719,104.2656 Q240.3969,104.2656 240.1625,104.0156 Q239.9281,103.75 239.9281,103.1406 L239.9281,102.25 L235.9594,102.25 L235.9594,104.7031 L237.4438,104.7031 Q237.4438,104.0469 237.5688,103.8594 Q237.8344,103.4531 238.3031,103.4531 Q238.6781,103.4531 238.9125,103.7188 Q239.1469,103.9688 239.1469,104.5781 L239.1469,106.5469 Q239.1469,107.0938 239.0219,107.2813 Q238.7563,107.6719 238.3031,107.6719 Q237.8344,107.6719 237.5688,107.2656 Q237.4438,107.0781 237.4438,106.4063 L235.9594,106.4063 Z " fill="#000000"/><text fill="#000000" font-family="sans-serif" font-size="14" lengthAdjust="spacing" textLength="45" x="255.9" y="111.3379">Person</text><line style="stroke:#181818;stroke-width:0.5;" x1="201.5" x2="324.5" y1="121.6094" y2="121.6094"/><text fill="#000000" font-family="sans-serif" font-size="14" lengthAdjust="spacing" textLength="46" x="206.5" y="140.1426">+id : int</text><text fill="#000000" font-family="sans-serif" font-size="14" lengthAdjust="spacing" textLength="82" x="206.5" y="157.752">name : string</text><text fill="#000000" font-family="sans-serif" font-size="14" lengthAdjust="spacing" textLength="71" x="206.5" y="175.3613">role : string</text><text fill="#000000" font-family="sans-serif" font-size="14" lengthAdjust="spacing" textLength="53" x="206.5" y="192.9707">bio : text</text><text fill="#000000" font-family="sans-serif" font-size="14" lengthAdjust="spacing" textLength="80" x="206.5" y="210.5801">email : string</text><text fill="#000000" font-family="sans-serif" font-size="14" lengthAdjust="spacing" textLength="107" x="206.5" y="228.1895">photo_url : string</text><text fill="#000000" font-family="sans-serif" font-size="14" lengthAdjust="spacing" textLength="113" x="206.5" y="245.7988">display_order : int</text><line style="stroke:#181818;stroke-width:0.5;" x1="201.5" x2="324.5" y1="252.875" y2="252.875"/></g><!--class NewsArticle--><g id="elem_NewsArticle"><rect codeLine="17" fill="#F1F1F1" height="241.7031" id="NewsArticle" rx="2.5" ry="2.5" style="stroke:#181818;stroke-width:0.5;" width="150" x="7" y="54.1094"/><ellipse cx="42.7" cy="70.1094" fill="#ADD1B2" rx="11" ry="11" style="stroke:#181818;stroke-width:1.0;"/><path d="M41.5594,70.9063 L41.5594,73.4063 L45.8875,73.4063 L45.8875,72.4844 Q45.8875,71.875 46.1219,71.6094 Q46.3719,71.3438 46.7469,71.3438 Q47.1219,71.3438 47.3563,71.6094 Q47.5906,71.875 47.5906,72.4844 L47.5906,75.1094 L39.5906,75.1094 Q38.9656,75.1094 38.7,74.875 Q38.45,74.6406 38.45,74.25 Q38.45,73.875 38.7156,73.6406 Q38.9813,73.4063 39.5906,73.4063 L39.8563,73.4063 L39.8563,66.75 L39.5906,66.75 Q38.9656,66.75 38.7,66.5156 Q38.45,66.2813 38.45,65.8906 Q38.45,65.5156 38.7,65.2813 Q38.9656,65.0469 39.5906,65.0469 L47.2156,65.0469 L47.2156,67.6406 Q47.2156,68.25 46.9813,68.5156 Q46.7625,68.7656 46.3719,68.7656 Q45.9969,68.7656 45.7625,68.5156 Q45.5281,68.25 45.5281,67.6406 L45.5281,66.75 L41.5594,66.75 L41.5594,69.2031 L43.0438,69.2031 Q43.0438,68.5469 43.1688,68.3594 Q43.4344,67.9531 43.9031,67.9531 Q44.2781,67.9531 44.5125,68.2188 Q44.7469,68.4688 44.7469,69.0781 L44.7469,71.0469 Q44.7469,71.5938 44.6219,71.7813 Q44.3563,72.1719 43.9031,72.1719 Q43.4344,72.1719 43.1688,71.7656 Q43.0438,71.5781 43.0438,70.9063 L41.5594,70.9063 Z " fill="#000000"/><text fill="#000000" font-family="sans-serif" font-size="14" lengthAdjust="spacing" textLength="72" x="61.3" y="75.8379">NewsArticle</text><line style="stroke:#181818;stroke-width:0.5;" x1="8" x2="156" y1="86.1094" y2="86.1094"/><text fill="#000000" font-family="sans-serif" font-size="14" lengthAdjust="spacing" textLength="46" x="13" y="104.6426">+id : int</text><text fill="#000000" font-family="sans-serif" font-size="14" lengthAdjust="spacing" textLength="69" x="13" y="122.252">title : string</text><text fill="#000000" font-family="sans-serif" font-size="14" lengthAdjust="spacing" textLength="104" x="13" y="139.8613">summary : string</text><text fill="#000000" font-family="sans-serif" font-size="14" lengthAdjust="spacing" textLength="81" x="13" y="157.4707">content : text</text><text fill="#000000" font-family="sans-serif" font-size="14" lengthAdjust="spacing" textLength="137" x="13" y="175.0801">date_published : date</text><text fill="#000000" font-family="sans-serif" font-size="14" lengthAdjust="spacing" textLength="132" x="13" y="192.6895">thumbnail_url : string</text><text fill="#000000" font-family="sans-serif" font-size="14" lengthAdjust="spacing" textLength="136" x="13" y="210.2988">slug : string &#171;unique&#187;</text><text fill="#000000" font-family="sans-serif" font-size="14" lengthAdjust="spacing" textLength="134" x="13" y="227.9082">created_at : datetime</text><text fill="#000000" font-family="sans-serif" font-size="14" lengthAdjust="spacing" textLength="138" x="13" y="245.5176">updated_at : datetime</text><text fill="#000000" font-family="sans-serif" font-size="14" lengthAdjust="spacing" textLength="98" x="13" y="263.127">created_by : int</text><text fill="#000000" font-family="sans-serif" font-size="14" lengthAdjust="spacing" textLength="102" x="13" y="280.7363">updated_by : int</text><line style="stroke:#181818;stroke-width:0.5;" x1="8" x2="156" y1="287.8125" y2="287.8125"/></g><!--class Publication--><g id="elem_Publication"><rect codeLine="31" fill="#F1F1F1" height="259.3125" id="Publication" rx="2.5" ry="2.5" style="stroke:#181818;stroke-width:0.5;" width="156" x="368" y="45.6094"/><ellipse cx="407.75" cy="61.6094" fill="#ADD1B2" rx="11" ry="11" style="stroke:#181818;stroke-width:1.0;"/><path d="M406.6094,62.4063 L406.6094,64.9063 L410.9375,64.9063 L410.9375,63.9844 Q410.9375,63.375 411.1719,63.1094 Q411.4219,62.8438 411.7969,62.8438 Q412.1719,62.8438 412.4063,63.1094 Q412.6406,63.375 412.6406,63.9844 L412.6406,66.6094 L404.6406,66.6094 Q404.0156,66.6094 403.75,66.375 Q403.5,66.1406 403.5,65.75 Q403.5,65.375 403.7656,65.1406 Q404.0313,64.9063 404.6406,64.9063 L404.9063,64.9063 L404.9063,58.25 L404.6406,58.25 Q404.0156,58.25 403.75,58.0156 Q403.5,57.7813 403.5,57.3906 Q403.5,57.0156 403.75,56.7813 Q404.0156,56.5469 404.6406,56.5469 L412.2656,56.5469 L412.2656,59.1406 Q412.2656,59.75 412.0313,60.0156 Q411.8125,60.2656 411.4219,60.2656 Q411.0469,60.2656 410.8125,60.0156 Q410.5781,59.75 410.5781,59.1406 L410.5781,58.25 L406.6094,58.25 L406.6094,60.7031 L408.0938,60.7031 Q408.0938,60.0469 408.2188,59.8594 Q408.4844,59.4531 408.9531,59.4531 Q409.3281,59.4531 409.5625,59.7188 Q409.7969,59.9688 409.7969,60.5781 L409.7969,62.5469 Q409.7969,63.0938 409.6719,63.2813 Q409.4063,63.6719 408.9531,63.6719 Q408.4844,63.6719 408.2188,63.2656 Q408.0938,63.0781 408.0938,62.4063 L406.6094,62.4063 Z " fill="#000000"/><text fill="#000000" font-family="sans-serif" font-size="14" lengthAdjust="spacing" textLength="69" x="427.25" y="67.3379">Publication</text><line style="stroke:#181818;stroke-width:0.5;" x1="369" x2="523" y1="77.6094" y2="77.6094"/><text fill="#000000" font-family="sans-serif" font-size="14" lengthAdjust="spacing" textLength="46" x="374" y="96.1426">+id : int</text><text fill="#000000" font-family="sans-serif" font-size="14" lengthAdjust="spacing" textLength="69" x="374" y="113.752">title : string</text><text fill="#000000" font-family="sans-serif" font-size="14" lengthAdjust="spacing" textLength="98" x="374" y="131.3613">abstract : string</text><text fill="#000000" font-family="sans-serif" font-size="14" lengthAdjust="spacing" textLength="92" x="374" y="148.9707">citation : string</text><text fill="#000000" font-family="sans-serif" font-size="14" lengthAdjust="spacing" textLength="144" x="374" y="166.5801">publication_date : date</text><text fill="#000000" font-family="sans-serif" font-size="14" lengthAdjust="spacing" textLength="89" x="374" y="184.1895">journal_id : int</text><text fill="#000000" font-family="sans-serif" font-size="14" lengthAdjust="spacing" textLength="90" x="374" y="201.7988">doi_url : string</text><text fill="#000000" font-family="sans-serif" font-size="14" lengthAdjust="spacing" textLength="91" x="374" y="219.4082">pdf_url : string</text><text fill="#000000" font-family="sans-serif" font-size="14" lengthAdjust="spacing" textLength="134" x="374" y="237.0176">created_at : datetime</text><text fill="#000000" font-family="sans-serif" font-size="14" lengthAdjust="spacing" textLength="138" x="374" y="254.627">updated_at : datetime</text><text fill="#000000" font-family="sans-serif" font-size="14" lengthAdjust="spacing" textLength="98" x="374" y="272.2363">created_by : int</text><text fill="#000000" font-family="sans-serif" font-size="14" lengthAdjust="spacing" textLength="102" x="374" y="289.8457">updated_by : int</text><line style="stroke:#181818;stroke-width:0.5;" x1="369" x2="523" y1="296.9219" y2="296.9219"/></g><!--class ArticlePerson--><g id="elem_ArticlePerson"><rect codeLine="46" fill="#F1F1F1" height="118.4375" id="ArticlePerson" rx="2.5" ry="2.5" style="stroke:#181818;stroke-width:0.5;" width="148" x="74" y="382.6094"/><ellipse cx="103.4" cy="398.6094" fill="#ADD1B2" rx="11" ry="11" style="stroke:#181818;stroke-width:1.0;"/><path d="M102.2594,399.4063 L102.2594,401.9063 L106.5875,401.9063 L106.5875,400.9844 Q106.5875,400.375 106.8219,400.1094 Q107.0719,399.8438 107.4469,399.8438 Q107.8219,399.8438 108.0563,400.1094 Q108.2906,400.375 108.2906,400.9844 L108.2906,403.6094 L100.2906,403.6094 Q99.6656,403.6094 99.4,403.375 Q99.15,403.1406 99.15,402.75 Q99.15,402.375 99.4156,402.1406 Q99.6813,401.9063 100.2906,401.9063 L100.5563,401.9063 L100.5563,395.25 L100.2906,395.25 Q99.6656,395.25 99.4,395.0156 Q99.15,394.7813 99.15,394.3906 Q99.15,394.0156 99.4,393.7813 Q99.6656,393.5469 100.2906,393.5469 L107.9156,393.5469 L107.9156,396.1406 Q107.9156,396.75 107.6813,397.0156 Q107.4625,397.2656 107.0719,397.2656 Q106.6969,397.2656 106.4625,397.0156 Q106.2281,396.75 106.2281,396.1406 L106.2281,395.25 L102.2594,395.25 L102.2594,397.7031 L103.7438,397.7031 Q103.7438,397.0469 103.8688,396.8594 Q104.1344,396.4531 104.6031,396.4531 Q104.9781,396.4531 105.2125,396.7188 Q105.4469,396.9688 105.4469,397.5781 L105.4469,399.5469 Q105.4469,400.0938 105.3219,400.2813 Q105.0563,400.6719 104.6031,400.6719 Q104.1344,400.6719 103.8688,400.2656 Q103.7438,400.0781 103.7438,399.4063 L102.2594,399.4063 Z " fill="#000000"/><text fill="#000000" font-family="sans-serif" font-size="14" lengthAdjust="spacing" textLength="84" x="120.6" y="404.3379">ArticlePerson</text><line style="stroke:#181818;stroke-width:0.5;" x1="75" x2="221" y1="414.6094" y2="414.6094"/><text fill="#000000" font-family="sans-serif" font-size="14" lengthAdjust="spacing" textLength="132" x="80" y="433.1426">+news_article_id : int</text><text fill="#000000" font-family="sans-serif" font-size="14" lengthAdjust="spacing" textLength="98" x="80" y="450.752">+person_id : int</text><text fill="#000000" font-family="sans-serif" font-size="14" lengthAdjust="spacing" textLength="136" x="80" y="468.3613">role_in_article : string</text><text fill="#000000" font-family="sans-serif" font-size="14" lengthAdjust="spacing" textLength="134" x="80" y="485.9707">created_at : datetime</text><line style="stroke:#181818;stroke-width:0.5;" x1="75" x2="221" y1="493.0469" y2="493.0469"/></g><!--class PublicationPerson--><g id="elem_PublicationPerson"><rect codeLine="53" fill="#F1F1F1" height="118.4375" id="PublicationPerson" rx="2.5" ry="2.5" style="stroke:#181818;stroke-width:0.5;" width="178" x="277" y="382.6094"/><ellipse cx="306.4" cy="398.6094" fill="#ADD1B2" rx="11" ry="11" style="stroke:#181818;stroke-width:1.0;"/><path d="M305.2594,399.4063 L305.2594,401.9063 L309.5875,401.9063 L309.5875,400.9844 Q309.5875,400.375 309.8219,400.1094 Q310.0719,399.8438 310.4469,399.8438 Q310.8219,399.8438 311.0563,400.1094 Q311.2906,400.375 311.2906,400.9844 L311.2906,403.6094 L303.2906,403.6094 Q302.6656,403.6094 302.4,403.375 Q302.15,403.1406 302.15,402.75 Q302.15,402.375 302.4156,402.1406 Q302.6813,401.9063 303.2906,401.9063 L303.5563,401.9063 L303.5563,395.25 L303.2906,395.25 Q302.6656,395.25 302.4,395.0156 Q302.15,394.7813 302.15,394.3906 Q302.15,394.0156 302.4,393.7813 Q302.6656,393.5469 303.2906,393.5469 L310.9156,393.5469 L310.9156,396.1406 Q310.9156,396.75 310.6813,397.0156 Q310.4625,397.2656 310.0719,397.2656 Q309.6969,397.2656 309.4625,397.0156 Q309.2281,396.75 309.2281,396.1406 L309.2281,395.25 L305.2594,395.25 L305.2594,397.7031 L306.7438,397.7031 Q306.7438,397.0469 306.8688,396.8594 Q307.1344,396.4531 307.6031,396.4531 Q307.9781,396.4531 308.2125,396.7188 Q308.4469,396.9688 308.4469,397.5781 L308.4469,399.5469 Q308.4469,400.0938 308.3219,400.2813 Q308.0563,400.6719 307.6031,400.6719 Q307.1344,400.6719 306.8688,400.2656 Q306.7438,400.0781 306.7438,399.4063 L305.2594,399.4063 Z " fill="#000000"/><text fill="#000000" font-family="sans-serif" font-size="14" lengthAdjust="spacing" textLength="114" x="323.6" y="404.3379">PublicationPerson</text><line style="stroke:#181818;stroke-width:0.5;" x1="278" x2="454" y1="414.6094" y2="414.6094"/><text fill="#000000" font-family="sans-serif" font-size="14" lengthAdjust="spacing" textLength="122" x="283" y="433.1426">+publication_id : int</text><text fill="#000000" font-family="sans-serif" font-size="14" lengthAdjust="spacing" textLength="98" x="283" y="450.752">+person_id : int</text><text fill="#000000" font-family="sans-serif" font-size="14" lengthAdjust="spacing" textLength="166" x="283" y="468.3613">role_in_publication : string</text><text fill="#000000" font-family="sans-serif" font-size="14" lengthAdjust="spacing" textLength="134" x="283" y="485.9707">created_at : datetime</text><line style="stroke:#181818;stroke-width:0.5;" x1="278" x2="454" y1="493.0469" y2="493.0469"/></g><!--link NewsArticle to ArticlePerson--><g id="link_NewsArticle_ArticlePerson"><path codeLine="62" d="M69.2531,304.5471 C70.3131,323.6571 72.9,334.9394 79,352.6094 C82.55,362.8894 77.996,357.8162 84.106,367.1562 " fill="none" id="NewsArticle-ArticlePerson" style="stroke:#181818;stroke-width:1.0;"/><line style="stroke:#181818;stroke-width:1.0;" x1="65.0377" x2="73.0254" y1="300.7748" y2="300.3317"/><line style="stroke:#181818;stroke-width:1.0;" x1="65.2038" x2="73.1915" y1="303.7702" y2="303.3271"/><line style="stroke:#181818;stroke-width:1.0;" x1="69.2531" x2="68.81" y1="304.5471" y2="296.5594"/><line style="stroke:#181818;stroke-width:1.0;" x1="89.5805" x2="98.9811" y1="375.5246" y2="378.9347"/><line style="stroke:#181818;stroke-width:1.0;" x1="89.5805" x2="88.9389" y1="375.5246" y2="385.504"/><line style="stroke:#181818;stroke-width:1.0;" x1="89.5805" x2="93.96" y1="375.5246" y2="382.2194"/><ellipse cx="86.2958" cy="370.5036" fill="none" rx="4" ry="4" style="stroke:#181818;stroke-width:1.0;"/><text fill="#000000" font-family="sans-serif" font-size="13" lengthAdjust="spacing" textLength="70" x="80" y="349.1045">0..* features</text></g><!--link Person to ArticlePerson--><g id="link_Person_ArticlePerson"><path codeLine="63" d="M222.9507,268.2261 C205.7407,307.8161 196.0483,330.1026 180.5583,365.7226 " fill="none" id="Person-ArticlePerson" style="stroke:#181818;stroke-width:1.0;"/><line style="stroke:#181818;stroke-width:1.0;" x1="220.8769" x2="228.2137" y1="262.9631" y2="266.1524"/><line style="stroke:#181818;stroke-width:1.0;" x1="219.6809" x2="227.0177" y1="265.7144" y2="268.9037"/><line style="stroke:#181818;stroke-width:1.0;" x1="222.9507" x2="226.14" y1="268.2261" y2="260.8894"/><line style="stroke:#181818;stroke-width:1.0;" x1="176.5703" x2="178.8822" y1="374.893" y2="384.6221"/><line style="stroke:#181818;stroke-width:1.0;" x1="176.5703" x2="167.8778" y1="374.893" y2="379.8366"/><line style="stroke:#181818;stroke-width:1.0;" x1="176.5703" x2="173.38" y1="374.893" y2="382.2294"/><ellipse cx="178.9631" cy="369.3908" fill="none" rx="4" ry="4" style="stroke:#181818;stroke-width:1.0;"/><text fill="#000000" font-family="sans-serif" font-size="13" lengthAdjust="spacing" textLength="84" x="193" y="349.1045">0..* appears in</text></g><!--link Publication to PublicationPerson--><g id="link_Publication_PublicationPerson"><path codeLine="65" d="M419.0471,312.4997 C414.8871,328.7597 412.19,337.2994 407,352.6094 C403.7,362.3494 406.8834,355.9567 402.6134,365.6867 " fill="none" id="Publication-PublicationPerson" style="stroke:#181818;stroke-width:1.0;"/><line style="stroke:#181818;stroke-width:1.0;" x1="416.1634" x2="423.9137" y1="307.6331" y2="309.616"/><line style="stroke:#181818;stroke-width:1.0;" x1="415.4198" x2="423.1702" y1="310.5395" y2="312.5224"/><line style="stroke:#181818;stroke-width:1.0;" x1="419.0471" x2="421.03" y1="312.4997" y2="304.7494"/><line style="stroke:#181818;stroke-width:1.0;" x1="398.5948" x2="400.8742" y1="374.8437" y2="384.5805"/><line style="stroke:#181818;stroke-width:1.0;" x1="398.5948" x2="389.8858" y1="374.8437" y2="379.7582"/><line style="stroke:#181818;stroke-width:1.0;" x1="398.5948" x2="395.38" y1="374.8437" y2="382.1694"/><ellipse cx="401.006" cy="369.3495" fill="none" rx="4" ry="4" style="stroke:#181818;stroke-width:1.0;"/><text fill="#000000" font-family="sans-serif" font-size="13" lengthAdjust="spacing" textLength="70" x="412" y="349.1045">0..* features</text></g><!--link Person to PublicationPerson--><g id="link_Person_PublicationPerson"><path codeLine="66" d="M284.1543,268.4758 C292.1143,298.1258 300.4,323.5394 313,352.6094 C317.33,362.5894 313.7403,357.1407 319.2703,366.9207 " fill="none" id="Person-PublicationPerson" style="stroke:#181818;stroke-width:1.0;"/><line style="stroke:#181818;stroke-width:1.0;" x1="279.2539" x2="286.9803" y1="265.6497" y2="263.5754"/><line style="stroke:#181818;stroke-width:1.0;" x1="280.0318" x2="287.7582" y1="268.5471" y2="266.4728"/><line style="stroke:#181818;stroke-width:1.0;" x1="284.1543" x2="282.08" y1="268.4758" y2="260.7494"/><line style="stroke:#181818;stroke-width:1.0;" x1="324.1924" x2="333.3529" y1="375.6255" y2="379.6362"/><line style="stroke:#181818;stroke-width:1.0;" x1="324.1924" x2="322.9071" y1="375.6255" y2="385.5426"/><line style="stroke:#181818;stroke-width:1.0;" x1="324.1924" x2="328.13" y1="375.6255" y2="382.5894"/><ellipse cx="321.2391" cy="370.4027" fill="none" rx="4" ry="4" style="stroke:#181818;stroke-width:1.0;"/><text fill="#000000" font-family="sans-serif" font-size="13" lengthAdjust="spacing" textLength="84" x="314" y="349.1045">0..* appears in</text></g><!--SRC=[jLJ1Jjmm4BtxAqOv5Abe4MU4a93A0GbLg3rmZ2R9G8OwjckFrIxGVw-zoMwy0SfUcfFdPURvpVFOmg89lb4Wz6qFDzZ07JM1XM05LwP7qr87N-bNW4zm6nlDBGfR4-0B2ZOOIAdmWur3ZmEq6aEu5F7SHA7hrfhl_4HmgjHH8XCMfg0KvTKQgblomPeACC2uX6S5SCmTd04RIMk30wKW94Bpa69lzLxSi4sXqE-SJ0EoBl-wtegjezy3EmvEuxgslYC_RVHdrfGxlVJ2hQQDi29-fKustXNS8Gu3-dK99GiaSSygEnIgNJOoz9IvCf39-ZWq9dMm51nqVDZ5S7uU3V-CT76HoJsbugv6cNY4XymLNVSclirlrhiUjgaxgF2YEExnaERuOo-mIKjiPSyCbh6wFAIPjCvIPaSURVG6TLtiqbbUskEw-oNqdssPng6OtZrajCQakQbnnCiEZjqcgOJoKDTijjaVT_Bs4PMtQOcEcagh3vDKL1mawoYz97fy7tfswQgNr-VbPRMopmkppg0wFJdv3FU9CNeAbPf-RBv_bg1pwT4AINAbL3cRKzLh5mxQxFsoSiE_]--></g></svg>